<svg width="384" height="120" viewBox="0 0 384 120" fill="none" xmlns="http://www.w3.org/2000/svg">
<path d="M175.187 97.3071L174.254 94.5062C181.225 91.2073 187.293 87.2861 192.459 82.7424C197.626 78.1987 201.578 72.4724 204.317 65.5635C200.769 68.9246 195.354 70.6052 188.071 70.6052C183.403 70.6052 179.357 68.6445 175.934 64.7233C172.573 60.7398 170.892 56.4139 170.892 51.7457C170.892 45.7705 173.133 40.76 177.615 36.7142C182.096 32.6685 187.324 30.6456 193.3 30.6456C199.275 30.6456 204.13 32.6685 207.864 36.7142C211.599 40.76 213.466 45.8327 213.466 51.9325C213.466 58.0322 212.439 63.6029 210.385 68.6445C208.331 73.6861 205.499 78.012 201.889 81.622C194.794 88.7799 185.893 94.0082 175.187 97.3071ZM181.536 59.1215C182.719 61.1132 184.368 62.7937 186.484 64.1631C188.663 65.4702 191.246 66.1237 194.233 66.1237C197.283 66.1237 199.804 64.91 201.796 62.4825C203.85 60.0551 204.877 57.0363 204.877 53.4263C204.877 48.2602 203.321 43.9343 200.209 40.4488C197.096 36.901 193.362 35.1271 189.005 35.1271C185.582 35.1271 182.843 36.3719 180.789 38.8616C178.797 41.289 177.801 44.2767 177.801 47.8245C177.801 51.31 179.046 55.0757 181.536 59.1215Z" fill="#E1B6C8"/>
<path d="M169.065 17V14.912L169.011 14.57V11.078C169.011 10.274 168.783 9.656 168.327 9.224C167.883 8.792 167.217 8.576 166.329 8.576C165.717 8.576 165.135 8.678 164.583 8.882C164.031 9.086 163.563 9.356 163.179 9.692L162.603 8.738C163.083 8.33 163.659 8.018 164.331 7.802C165.003 7.574 165.711 7.46 166.455 7.46C167.679 7.46 168.621 7.766 169.281 8.378C169.953 8.978 170.289 9.896 170.289 11.132V17H169.065ZM165.807 17.09C165.099 17.09 164.481 16.976 163.953 16.748C163.437 16.508 163.041 16.184 162.765 15.776C162.489 15.356 162.351 14.876 162.351 14.336C162.351 13.844 162.465 13.4 162.693 13.004C162.933 12.596 163.317 12.272 163.845 12.032C164.385 11.78 165.105 11.654 166.005 11.654H169.263V12.608H166.041C165.129 12.608 164.493 12.77 164.133 13.094C163.785 13.418 163.611 13.82 163.611 14.3C163.611 14.84 163.821 15.272 164.241 15.596C164.661 15.92 165.249 16.082 166.005 16.082C166.725 16.082 167.343 15.92 167.859 15.596C168.387 15.26 168.771 14.78 169.011 14.156L169.299 15.038C169.059 15.662 168.639 16.16 168.039 16.532C167.451 16.904 166.707 17.09 165.807 17.09ZM177.793 20.582C176.929 20.582 176.101 20.456 175.309 20.204C174.517 19.952 173.875 19.592 173.383 19.124L174.031 18.152C174.475 18.548 175.021 18.86 175.669 19.088C176.329 19.328 177.025 19.448 177.757 19.448C178.957 19.448 179.839 19.166 180.403 18.602C180.967 18.05 181.249 17.186 181.249 16.01V13.652L181.429 12.032L181.303 10.412V7.55H182.527V15.848C182.527 17.48 182.125 18.674 181.321 19.43C180.529 20.198 179.353 20.582 177.793 20.582ZM177.559 16.64C176.659 16.64 175.849 16.448 175.129 16.064C174.409 15.668 173.839 15.122 173.419 14.426C173.011 13.73 172.807 12.932 172.807 12.032C172.807 11.132 173.011 10.34 173.419 9.656C173.839 8.96 174.409 8.42 175.129 8.036C175.849 7.652 176.659 7.46 177.559 7.46C178.399 7.46 179.155 7.634 179.827 7.982C180.499 8.33 181.033 8.846 181.429 9.53C181.825 10.214 182.023 11.048 182.023 12.032C182.023 13.016 181.825 13.85 181.429 14.534C181.033 15.218 180.499 15.74 179.827 16.1C179.155 16.46 178.399 16.64 177.559 16.64ZM177.685 15.506C178.381 15.506 178.999 15.362 179.539 15.074C180.079 14.774 180.505 14.366 180.817 13.85C181.129 13.322 181.285 12.716 181.285 12.032C181.285 11.348 181.129 10.748 180.817 10.232C180.505 9.716 180.079 9.314 179.539 9.026C178.999 8.726 178.381 8.576 177.685 8.576C177.001 8.576 176.383 8.726 175.831 9.026C175.291 9.314 174.865 9.716 174.553 10.232C174.253 10.748 174.103 11.348 174.103 12.032C174.103 12.716 174.253 13.322 174.553 13.85C174.865 14.366 175.291 14.774 175.831 15.074C176.383 15.362 177.001 15.506 177.685 15.506ZM189.935 17.09C189.023 17.09 188.201 16.886 187.469 16.478C186.749 16.058 186.179 15.488 185.759 14.768C185.339 14.036 185.129 13.202 185.129 12.266C185.129 11.318 185.339 10.484 185.759 9.764C186.179 9.044 186.749 8.48 187.469 8.072C188.189 7.664 189.011 7.46 189.935 7.46C190.871 7.46 191.699 7.664 192.419 8.072C193.151 8.48 193.721 9.044 194.129 9.764C194.549 10.484 194.759 11.318 194.759 12.266C194.759 13.202 194.549 14.036 194.129 14.768C193.721 15.488 193.151 16.058 192.419 16.478C191.687 16.886 190.859 17.09 189.935 17.09ZM189.935 15.956C190.619 15.956 191.225 15.806 191.753 15.506C192.281 15.194 192.695 14.762 192.995 14.21C193.307 13.646 193.463 12.998 193.463 12.266C193.463 11.522 193.307 10.874 192.995 10.322C192.695 9.77 192.281 9.344 191.753 9.044C191.225 8.732 190.625 8.576 189.953 8.576C189.281 8.576 188.681 8.732 188.153 9.044C187.625 9.344 187.205 9.77 186.893 10.322C186.581 10.874 186.425 11.522 186.425 12.266C186.425 12.998 186.581 13.646 186.893 14.21C187.205 14.762 187.625 15.194 188.153 15.506C188.681 15.806 189.275 15.956 189.935 15.956ZM199.906 17.09C199.126 17.09 198.388 16.982 197.692 16.766C196.996 16.538 196.45 16.256 196.054 15.92L196.63 14.912C197.014 15.2 197.506 15.452 198.106 15.668C198.706 15.872 199.336 15.974 199.996 15.974C200.896 15.974 201.544 15.836 201.94 15.56C202.336 15.272 202.534 14.894 202.534 14.426C202.534 14.078 202.42 13.808 202.192 13.616C201.976 13.412 201.688 13.262 201.328 13.166C200.968 13.058 200.566 12.968 200.122 12.896C199.678 12.824 199.234 12.74 198.79 12.644C198.358 12.548 197.962 12.41 197.602 12.23C197.242 12.038 196.948 11.78 196.72 11.456C196.504 11.132 196.396 10.7 196.396 10.16C196.396 9.644 196.54 9.182 196.828 8.774C197.116 8.366 197.536 8.048 198.088 7.82C198.652 7.58 199.336 7.46 200.14 7.46C200.752 7.46 201.364 7.544 201.976 7.712C202.588 7.868 203.092 8.078 203.488 8.342L202.93 9.368C202.51 9.08 202.06 8.876 201.58 8.756C201.1 8.624 200.62 8.558 200.14 8.558C199.288 8.558 198.658 8.708 198.25 9.008C197.854 9.296 197.656 9.668 197.656 10.124C197.656 10.484 197.764 10.766 197.98 10.97C198.208 11.174 198.502 11.336 198.862 11.456C199.234 11.564 199.636 11.654 200.068 11.726C200.512 11.798 200.95 11.888 201.382 11.996C201.826 12.092 202.228 12.23 202.588 12.41C202.96 12.578 203.254 12.824 203.47 13.148C203.698 13.46 203.812 13.874 203.812 14.39C203.812 14.942 203.656 15.422 203.344 15.83C203.044 16.226 202.6 16.538 202.012 16.766C201.436 16.982 200.734 17.09 199.906 17.09ZM209.145 17.09C208.257 17.09 207.573 16.85 207.093 16.37C206.613 15.89 206.373 15.212 206.373 14.336V5.462H207.651V14.264C207.651 14.816 207.789 15.242 208.065 15.542C208.353 15.842 208.761 15.992 209.289 15.992C209.853 15.992 210.321 15.83 210.693 15.506L211.143 16.424C210.891 16.652 210.585 16.82 210.225 16.928C209.877 17.036 209.517 17.09 209.145 17.09ZM204.681 8.612V7.55H210.531V8.612H204.681ZM216.988 17.09C216.076 17.09 215.254 16.886 214.522 16.478C213.802 16.058 213.232 15.488 212.812 14.768C212.392 14.036 212.182 13.202 212.182 12.266C212.182 11.318 212.392 10.484 212.812 9.764C213.232 9.044 213.802 8.48 214.522 8.072C215.242 7.664 216.064 7.46 216.988 7.46C217.924 7.46 218.752 7.664 219.472 8.072C220.204 8.48 220.774 9.044 221.182 9.764C221.602 10.484 221.812 11.318 221.812 12.266C221.812 13.202 221.602 14.036 221.182 14.768C220.774 15.488 220.204 16.058 219.472 16.478C218.74 16.886 217.912 17.09 216.988 17.09ZM216.988 15.956C217.672 15.956 218.278 15.806 218.806 15.506C219.334 15.194 219.748 14.762 220.048 14.21C220.36 13.646 220.516 12.998 220.516 12.266C220.516 11.522 220.36 10.874 220.048 10.322C219.748 9.77 219.334 9.344 218.806 9.044C218.278 8.732 217.678 8.576 217.006 8.576C216.334 8.576 215.734 8.732 215.206 9.044C214.678 9.344 214.258 9.77 213.946 10.322C213.634 10.874 213.478 11.522 213.478 12.266C213.478 12.998 213.634 13.646 213.946 14.21C214.258 14.762 214.678 15.194 215.206 15.506C215.734 15.806 216.328 15.956 216.988 15.956Z" fill="white"/>
<path d="M35.5742 74.865C34.5775 74.865 33.6345 74.727 32.7452 74.451C31.8559 74.1597 31.1582 73.7993 30.6522 73.37L31.3882 72.082C31.8789 72.45 32.5075 72.772 33.2742 73.048C34.0409 73.3087 34.8459 73.439 35.6892 73.439C36.8392 73.439 37.6672 73.2627 38.1732 72.91C38.6792 72.542 38.9322 72.059 38.9322 71.461C38.9322 71.0163 38.7865 70.6713 38.4952 70.426C38.2192 70.1653 37.8512 69.9737 37.3912 69.851C36.9312 69.713 36.4175 69.598 35.8502 69.506C35.2829 69.414 34.7155 69.3067 34.1482 69.184C33.5962 69.0613 33.0902 68.885 32.6302 68.655C32.1702 68.4097 31.7945 68.08 31.5032 67.666C31.2272 67.252 31.0892 66.7 31.0892 66.01C31.0892 65.3507 31.2732 64.7603 31.6412 64.239C32.0092 63.7177 32.5459 63.3113 33.2512 63.02C33.9719 62.7133 34.8459 62.56 35.8732 62.56C36.6552 62.56 37.4372 62.6673 38.2192 62.882C39.0012 63.0813 39.6452 63.3497 40.1512 63.687L39.4382 64.998C38.9015 64.63 38.3265 64.3693 37.7132 64.216C37.0999 64.0473 36.4865 63.963 35.8732 63.963C34.7845 63.963 33.9795 64.1547 33.4582 64.538C32.9522 64.906 32.6992 65.3813 32.6992 65.964C32.6992 66.424 32.8372 66.7843 33.1132 67.045C33.4045 67.3057 33.7802 67.5127 34.2402 67.666C34.7155 67.804 35.2292 67.919 35.7812 68.011C36.3485 68.103 36.9082 68.218 37.4602 68.356C38.0275 68.4787 38.5412 68.655 39.0012 68.885C39.4765 69.0997 39.8522 69.414 40.1282 69.828C40.4195 70.2267 40.5652 70.7557 40.5652 71.415C40.5652 72.1203 40.3659 72.7337 39.9672 73.255C39.5839 73.761 39.0165 74.1597 38.2652 74.451C37.5292 74.727 36.6322 74.865 35.5742 74.865ZM51.1287 74.75V72.082L51.0597 71.645V67.183C51.0597 66.1557 50.7683 65.366 50.1857 64.814C49.6183 64.262 48.7673 63.986 47.6327 63.986C46.8507 63.986 46.107 64.1163 45.4017 64.377C44.6963 64.6377 44.0983 64.9827 43.6077 65.412L42.8717 64.193C43.485 63.6717 44.221 63.273 45.0797 62.997C45.9383 62.7057 46.843 62.56 47.7937 62.56C49.3577 62.56 50.5613 62.951 51.4047 63.733C52.2633 64.4997 52.6927 65.6727 52.6927 67.252V74.75H51.1287ZM46.9657 74.865C46.061 74.865 45.2713 74.7193 44.5967 74.428C43.9373 74.1213 43.4313 73.7073 43.0787 73.186C42.726 72.6493 42.5497 72.036 42.5497 71.346C42.5497 70.7173 42.6953 70.15 42.9867 69.644C43.2933 69.1227 43.784 68.7087 44.4587 68.402C45.1487 68.08 46.0687 67.919 47.2187 67.919H51.3817V69.138H47.2647C46.0993 69.138 45.2867 69.345 44.8267 69.759C44.382 70.173 44.1597 70.6867 44.1597 71.3C44.1597 71.99 44.428 72.542 44.9647 72.956C45.5013 73.37 46.2527 73.577 47.2187 73.577C48.1387 73.577 48.9283 73.37 49.5877 72.956C50.2623 72.5267 50.753 71.9133 51.0597 71.116L51.4277 72.243C51.121 73.0403 50.5843 73.6767 49.8177 74.152C49.0663 74.6273 48.1157 74.865 46.9657 74.865ZM46.3447 60.789L49.4957 57.937H51.6807L47.9547 60.789H46.3447ZM63.3611 74.865C62.3031 74.865 61.3524 74.6273 60.5091 74.152C59.6657 73.6613 58.9987 72.956 58.5081 72.036C58.0174 71.116 57.7721 70.0043 57.7721 68.701C57.7721 67.3823 58.0174 66.2707 58.5081 65.366C59.0141 64.446 59.6887 63.7483 60.5321 63.273C61.3754 62.7977 62.3184 62.56 63.3611 62.56C64.5111 62.56 65.5384 62.8207 66.4431 63.342C67.3631 63.848 68.0837 64.561 68.6051 65.481C69.1264 66.401 69.3871 67.4743 69.3871 68.701C69.3871 69.9123 69.1264 70.9857 68.6051 71.921C68.0837 72.841 67.3631 73.5617 66.4431 74.083C65.5384 74.6043 64.5111 74.865 63.3611 74.865ZM57.1281 74.75V57.684H58.7611V66.24L58.5311 68.678L58.6921 71.116V74.75H57.1281ZM63.2461 73.416C64.1047 73.416 64.8714 73.2243 65.5461 72.841C66.2207 72.4423 66.7574 71.8903 67.1561 71.185C67.5547 70.4643 67.7541 69.6363 67.7541 68.701C67.7541 67.7503 67.5547 66.9223 67.1561 66.217C66.7574 65.5117 66.2207 64.9673 65.5461 64.584C64.8714 64.1853 64.1047 63.986 63.2461 63.986C62.3874 63.986 61.6131 64.1853 60.9231 64.584C60.2484 64.9673 59.7117 65.5117 59.3131 66.217C58.9297 66.9223 58.7381 67.7503 58.7381 68.701C58.7381 69.6363 58.9297 70.4643 59.3131 71.185C59.7117 71.8903 60.2484 72.4423 60.9231 72.841C61.6131 73.2243 62.3874 73.416 63.2461 73.416ZM80.2156 74.75V72.082L80.1466 71.645V67.183C80.1466 66.1557 79.8552 65.366 79.2726 64.814C78.7052 64.262 77.8542 63.986 76.7196 63.986C75.9376 63.986 75.1939 64.1163 74.4886 64.377C73.7832 64.6377 73.1852 64.9827 72.6946 65.412L71.9586 64.193C72.5719 63.6717 73.3079 63.273 74.1666 62.997C75.0252 62.7057 75.9299 62.56 76.8806 62.56C78.4446 62.56 79.6482 62.951 80.4916 63.733C81.3502 64.4997 81.7796 65.6727 81.7796 67.252V74.75H80.2156ZM76.0526 74.865C75.1479 74.865 74.3582 74.7193 73.6836 74.428C73.0242 74.1213 72.5182 73.7073 72.1656 73.186C71.8129 72.6493 71.6366 72.036 71.6366 71.346C71.6366 70.7173 71.7822 70.15 72.0736 69.644C72.3802 69.1227 72.8709 68.7087 73.5456 68.402C74.2356 68.08 75.1556 67.919 76.3056 67.919H80.4686V69.138H76.3516C75.1862 69.138 74.3736 69.345 73.9136 69.759C73.4689 70.173 73.2466 70.6867 73.2466 71.3C73.2466 71.99 73.5149 72.542 74.0516 72.956C74.5882 73.37 75.3396 73.577 76.3056 73.577C77.2256 73.577 78.0152 73.37 78.6746 72.956C79.3492 72.5267 79.8399 71.9133 80.1466 71.116L80.5146 72.243C80.2079 73.0403 79.6712 73.6767 78.9046 74.152C78.1532 74.6273 77.2026 74.865 76.0526 74.865ZM91.022 74.865C89.872 74.865 88.837 74.6043 87.917 74.083C87.0123 73.5617 86.2993 72.841 85.778 71.921C85.2567 70.9857 84.996 69.9123 84.996 68.701C84.996 67.4743 85.2567 66.401 85.778 65.481C86.2993 64.561 87.0123 63.848 87.917 63.342C88.837 62.8207 89.872 62.56 91.022 62.56C92.08 62.56 93.023 62.7977 93.851 63.273C94.6943 63.7483 95.3613 64.446 95.852 65.366C96.358 66.2707 96.611 67.3823 96.611 68.701C96.611 70.0043 96.3657 71.116 95.875 72.036C95.3843 72.956 94.7173 73.6613 93.874 74.152C93.046 74.6273 92.0953 74.865 91.022 74.865ZM91.137 73.416C91.9957 73.416 92.7623 73.2243 93.437 72.841C94.127 72.4423 94.6637 71.8903 95.047 71.185C95.4457 70.4643 95.645 69.6363 95.645 68.701C95.645 67.7503 95.4457 66.9223 95.047 66.217C94.6637 65.5117 94.127 64.9673 93.437 64.584C92.7623 64.1853 91.9957 63.986 91.137 63.986C90.2937 63.986 89.5347 64.1853 88.86 64.584C88.1853 64.9673 87.6487 65.5117 87.25 66.217C86.8513 66.9223 86.652 67.7503 86.652 68.701C86.652 69.6363 86.8513 70.4643 87.25 71.185C87.6487 71.8903 88.1853 72.4423 88.86 72.841C89.5347 73.2243 90.2937 73.416 91.137 73.416ZM95.691 74.75V71.116L95.852 68.678L95.622 66.24V57.684H97.255V74.75H95.691ZM106.725 74.865C105.56 74.865 104.509 74.6043 103.574 74.083C102.654 73.5463 101.926 72.818 101.389 71.898C100.852 70.9627 100.584 69.897 100.584 68.701C100.584 67.4897 100.852 66.424 101.389 65.504C101.926 64.584 102.654 63.8633 103.574 63.342C104.494 62.8207 105.544 62.56 106.725 62.56C107.921 62.56 108.979 62.8207 109.899 63.342C110.834 63.8633 111.563 64.584 112.084 65.504C112.621 66.424 112.889 67.4897 112.889 68.701C112.889 69.897 112.621 70.9627 112.084 71.898C111.563 72.818 110.834 73.5463 109.899 74.083C108.964 74.6043 107.906 74.865 106.725 74.865ZM106.725 73.416C107.599 73.416 108.373 73.2243 109.048 72.841C109.723 72.4423 110.252 71.8903 110.635 71.185C111.034 70.4643 111.233 69.6363 111.233 68.701C111.233 67.7503 111.034 66.9223 110.635 66.217C110.252 65.5117 109.723 64.9673 109.048 64.584C108.373 64.1853 107.607 63.986 106.748 63.986C105.889 63.986 105.123 64.1853 104.448 64.584C103.773 64.9673 103.237 65.5117 102.838 66.217C102.439 66.9223 102.24 67.7503 102.24 68.701C102.24 69.6363 102.439 70.4643 102.838 71.185C103.237 71.8903 103.773 72.4423 104.448 72.841C105.123 73.2243 105.882 73.416 106.725 73.416Z" fill="white"/>
<path d="M13.1132 46L16 48.8868L18.8868 46L16 43.1132L13.1132 46ZM129.89 46L127.003 43.1132L124.116 46L127.003 48.8868L129.89 46ZM16 46V46.5H127.003V46V45.5H16V46Z" fill="white"/>
<path d="M13.1132 88.25L16 91.1368L18.8868 88.25L16 85.3632L13.1132 88.25ZM129.89 88.25L127.003 85.3632L124.116 88.25L127.003 91.1368L129.89 88.25ZM16 88.25V88.75H127.003V88.25V87.75H16V88.25Z" fill="white"/>
<path d="M286.222 74.75V73.577L292.915 67.022C293.529 66.424 293.989 65.9027 294.295 65.458C294.602 64.998 294.809 64.5687 294.916 64.17C295.024 63.7713 295.077 63.3957 295.077 63.043C295.077 62.1077 294.755 61.3717 294.111 60.835C293.483 60.2983 292.547 60.03 291.305 60.03C290.355 60.03 289.511 60.1757 288.775 60.467C288.055 60.7583 287.434 61.2107 286.912 61.824L285.739 60.812C286.368 60.076 287.173 59.5087 288.154 59.11C289.136 58.7113 290.232 58.512 291.443 58.512C292.532 58.512 293.475 58.6883 294.272 59.041C295.07 59.3783 295.683 59.8767 296.112 60.536C296.557 61.1953 296.779 61.9697 296.779 62.859C296.779 63.3803 296.703 63.894 296.549 64.4C296.411 64.906 296.151 65.4427 295.767 66.01C295.399 66.562 294.855 67.1907 294.134 67.896L287.993 73.922L287.533 73.278H297.515V74.75H286.222ZM305.966 74.888C304.724 74.888 303.62 74.566 302.654 73.922C301.688 73.2627 300.929 72.3273 300.377 71.116C299.825 69.8893 299.549 68.4173 299.549 66.7C299.549 64.9827 299.825 63.5183 300.377 62.307C300.929 61.0803 301.688 60.145 302.654 59.501C303.62 58.8417 304.724 58.512 305.966 58.512C307.208 58.512 308.312 58.8417 309.278 59.501C310.244 60.145 311.003 61.0803 311.555 62.307C312.122 63.5183 312.406 64.9827 312.406 66.7C312.406 68.4173 312.122 69.8893 311.555 71.116C311.003 72.3273 310.244 73.2627 309.278 73.922C308.312 74.566 307.208 74.888 305.966 74.888ZM305.966 73.37C306.916 73.37 307.744 73.117 308.45 72.611C309.155 72.0897 309.707 71.3383 310.106 70.357C310.504 69.3603 310.704 68.1413 310.704 66.7C310.704 65.2587 310.504 64.0473 310.106 63.066C309.707 62.0693 309.155 61.318 308.45 60.812C307.744 60.2907 306.916 60.03 305.966 60.03C305.046 60.03 304.225 60.2907 303.505 60.812C302.784 61.318 302.224 62.0693 301.826 63.066C301.427 64.0473 301.228 65.2587 301.228 66.7C301.228 68.1413 301.427 69.3603 301.826 70.357C302.224 71.3383 302.784 72.0897 303.505 72.611C304.225 73.117 305.046 73.37 305.966 73.37ZM314.478 74.75V73.577L321.171 67.022C321.785 66.424 322.245 65.9027 322.551 65.458C322.858 64.998 323.065 64.5687 323.172 64.17C323.28 63.7713 323.333 63.3957 323.333 63.043C323.333 62.1077 323.011 61.3717 322.367 60.835C321.739 60.2983 320.803 60.03 319.561 60.03C318.611 60.03 317.767 60.1757 317.031 60.467C316.311 60.7583 315.69 61.2107 315.168 61.824L313.995 60.812C314.624 60.076 315.429 59.5087 316.41 59.11C317.392 58.7113 318.488 58.512 319.699 58.512C320.788 58.512 321.731 58.6883 322.528 59.041C323.326 59.3783 323.939 59.8767 324.368 60.536C324.813 61.1953 325.035 61.9697 325.035 62.859C325.035 63.3803 324.959 63.894 324.805 64.4C324.667 64.906 324.407 65.4427 324.023 66.01C323.655 66.562 323.111 67.1907 322.39 67.896L316.249 73.922L315.789 73.278H325.771V74.75H314.478ZM332.933 74.888C331.783 74.888 330.686 74.704 329.644 74.336C328.601 73.9527 327.773 73.4467 327.16 72.818L327.965 71.507C328.471 72.0437 329.161 72.4883 330.035 72.841C330.924 73.1937 331.882 73.37 332.91 73.37C334.274 73.37 335.309 73.071 336.015 72.473C336.735 71.8597 337.096 71.0623 337.096 70.081C337.096 69.391 336.927 68.8007 336.59 68.31C336.268 67.804 335.716 67.413 334.934 67.137C334.152 66.861 333.078 66.723 331.714 66.723H328.287L329.115 58.65H337.924V60.122H329.782L330.633 59.317L329.92 66.079L329.069 65.251H332.082C333.707 65.251 335.01 65.4503 335.992 65.849C336.973 66.2477 337.678 66.8073 338.108 67.528C338.552 68.2333 338.775 69.0613 338.775 70.012C338.775 70.9167 338.56 71.7447 338.131 72.496C337.701 73.232 337.057 73.8147 336.199 74.244C335.34 74.6733 334.251 74.888 332.933 74.888Z" fill="white"/>
<path d="M254.116 46L257.003 48.8868L259.89 46L257.003 43.1132L254.116 46ZM370.893 46L368.006 43.1132L365.12 46L368.006 48.8868L370.893 46ZM257.003 46V46.5H368.006V46V45.5H257.003V46Z" fill="white"/>
<path d="M254.116 88.25L257.003 91.1368L259.89 88.25L257.003 85.3632L254.116 88.25ZM370.893 88.25L368.006 85.3632L365.12 88.25L368.006 91.1368L370.893 88.25ZM257.003 88.25V88.75H368.006V88.25V87.75H257.003V88.25Z" fill="white"/>
</svg>
