<svg width="113" height="108" viewBox="0 0 113 108" fill="none" xmlns="http://www.w3.org/2000/svg">
<g clip-path="url(#clip0_2166_16)">
<path d="M7.60013 102.621C8.56251 100.302 13.9559 87.351 19.5854 73.8412C28.8072 51.7106 29.6518 48.9619 28.1137 46.0878C26.1009 42.3268 27.7773 38.6166 31.7527 38.0333C35.2479 37.5204 75.4085 77.725 74.7498 81.0775C73.9879 84.9553 70.2827 86.545 66.6001 84.5742C63.7259 83.036 60.9772 83.8806 38.8466 93.1024C25.3368 98.7319 12.3858 104.125 10.0668 105.088L5.85031 106.838L7.60013 102.621ZM81.6697 105.135C78.1278 100.868 83.3301 94.3116 87.9499 97.221C92.5664 100.128 90.9217 107.071 85.6166 107.071C84.3295 107.071 82.5534 106.2 81.6697 105.135ZM97.8833 89.4712C97.0033 88.5913 96.2833 85.3577 96.2833 82.2856C96.2833 73.2418 93.1051 70.5369 81.5407 69.738C70.9427 69.0058 67.5456 66.6619 70.4292 62.0713C72.549 58.6968 87.9098 58.1363 94.3618 61.1979C101.569 64.6179 105.97 71.2761 106.68 79.8321C107.316 87.5014 105.74 91.0713 101.72 91.0713C100.49 91.0713 98.7633 90.3512 97.8833 89.4712ZM60.5499 52.1379C57.6521 49.2401 58.8611 46.4012 65.9918 39.3591C71.9402 33.4846 73.8038 32.4046 77.9918 32.4046C82.8439 32.4046 82.9499 32.2961 82.9499 27.3379C82.9499 20.9521 84.8307 19.0713 91.2166 19.0713C96.1953 19.0713 96.2833 18.9832 96.2833 13.9995C96.2833 10.0129 97.224 8.01585 100.68 4.66613C105.353 0.136743 108.088 -0.590828 110.683 2.00461C113.05 4.37177 112.631 7.67681 109.617 10.4046C107.608 12.2222 106.95 14.5112 106.95 19.6779C106.95 27.8668 105.412 29.7379 98.6833 29.7379C93.7055 29.7379 93.6166 29.8268 93.6166 34.8046C93.6166 41.5235 91.7449 43.0712 83.6205 43.0712C77.4486 43.0712 76.3461 43.5611 71.6166 48.4046C66.2376 53.9132 63.3121 54.9001 60.5499 52.1379ZM1.66973 46.4687C-1.87221 42.2009 3.33004 35.6449 7.94991 38.5543C10.9122 40.4198 11.6362 43.9711 9.56343 46.4687C7.50392 48.9502 3.7292 48.9502 1.66973 46.4687ZM103.003 46.4687C99.4612 42.2009 104.663 35.6449 109.283 38.5543C112.246 40.4198 112.97 43.9711 110.897 46.4687C108.837 48.9502 105.063 48.9502 103.003 46.4687ZM44.5499 36.1379C43.6502 35.2381 42.9499 30.9263 42.9499 26.2857C42.9499 16.5756 40.5452 12.6668 33.7118 11.2692C23.9384 9.27033 24.8787 0.975943 34.8543 1.19096C40.8235 1.31946 45.6604 4.16993 50.1784 10.2213C53.5047 14.6765 54.963 32.509 52.2667 35.7578C50.2828 38.1483 46.735 38.323 44.5499 36.1379ZM12.3364 25.1353C10.2636 22.6378 10.9876 19.0865 13.9499 17.221C18.5698 14.3116 23.772 20.8675 20.2301 25.1353C18.1706 27.6168 14.3959 27.6168 12.3364 25.1353ZM65.6697 9.13529C62.1278 4.86752 67.33 -1.68839 71.9499 1.22098C74.9122 3.08652 75.6362 6.6377 73.5634 9.13529C71.5039 11.6168 67.7292 11.6168 65.6697 9.13529Z" fill="white"/>
</g>
<defs>
<clipPath id="clip0_2166_16">
<rect width="111.706" height="106.571" fill="white" transform="translate(0.5 0.5)"/>
</clipPath>
</defs>
</svg>
