<svg width="107" height="85" viewBox="0 0 107 85" fill="none" xmlns="http://www.w3.org/2000/svg">
<g clip-path="url(#clip0_2166_19)">
<path d="M10.9782 84.2709C9.87821 83.864 6.96318 81.3948 4.50039 78.7837C0.58317 74.6305 0.11002 73.3846 0.72075 68.8313C1.10472 65.9686 2.51973 62.4044 3.8652 60.911C5.21069 59.4175 15.7615 53.4606 27.3116 47.6733L48.3115 37.151V31.8255C48.3115 26.5013 48.3128 26.5 53.6449 26.5C59.5848 26.5 64.3115 22.955 64.3115 18.5C64.3115 15.0659 59.7456 10.5 56.3115 10.5C54.8449 10.5 52.4119 11.7329 50.9051 13.2397C48.8724 15.2724 46.8066 15.8746 42.9007 15.5731L37.6361 15.1667L39.9738 10.5948C43.4908 3.71664 48.6967 0.5 56.3115 0.5C75.479 0.5 81.7776 26.3613 64.5923 34.5C62.2697 35.6 60.3563 36.816 60.3404 37.2022C60.3253 37.5884 69.3467 42.3884 80.3897 47.8688C91.4328 53.3493 101.682 59.1243 103.166 60.7023C104.649 62.2802 106.179 65.9258 106.565 68.8037C107.185 73.4253 106.708 74.647 102.476 79.2681L97.6842 84.5L55.3312 84.7555C32.0371 84.8961 12.0782 84.6779 10.9782 84.2709ZM94.9641 72.5169C95.8693 71.4263 96.2648 69.6349 95.8431 68.536C95.4215 67.4371 85.7543 61.8884 74.3607 56.2056L53.6449 45.8732L32.9291 56.2056C21.5354 61.8884 11.8682 67.4371 11.4465 68.536C11.0249 69.6349 11.4201 71.4263 12.3256 72.5169C14.7861 75.4816 92.5036 75.4816 94.9641 72.5169Z" fill="white"/>
</g>
<defs>
<clipPath id="clip0_2166_19">
<rect width="106.287" height="84.2982" fill="white" transform="translate(0.5 0.5)"/>
</clipPath>
</defs>
</svg>
