<svg width="440" height="208" viewBox="0 0 440 208" fill="none" xmlns="http://www.w3.org/2000/svg">
<g clip-path="url(#clip0_2114_32)">
<g filter="url(#filter0_f_2114_32)">
<path d="M218.884 169.784C219.699 177.905 220.423 186.797 220.493 189.543C220.63 194.919 220.857 193.168 223.318 167.664C224.616 154.215 227.501 139.265 230.183 132.097C234.844 119.639 243.947 111.273 257.958 106.57C266.587 103.673 285.434 100.679 301.402 99.6689C307.376 99.2909 312.143 98.8667 311.997 98.7263C311.85 98.5859 305.794 97.9631 298.538 97.3422C265.479 94.5131 251.074 90.5022 241.14 81.3599C235.521 76.1892 232.977 72.1505 229.813 63.3814C226.372 53.8422 224.574 43.5479 222.424 21.0893C221.42 10.6092 220.547 4.50137 220.482 7.51636C220.275 17.204 217.413 42.8063 215.524 51.87C208.608 85.0481 194.719 93.2785 137.795 97.9319L129 98.6508L143.657 99.9002C176.633 102.711 191.42 106.862 201.476 116.132C211.574 125.439 215.718 138.213 218.884 169.784Z" fill="#696969"/>
</g>
<path d="M129.247 115.654C127.48 116.878 125.821 117.489 124.271 117.489C122.721 117.489 121.62 117.122 120.967 116.388C120.342 115.654 120.029 114.689 120.029 113.492C120.029 112.296 120.668 109.223 121.946 104.274C123.224 99.298 123.863 96.2117 123.863 95.0153C123.863 93.5197 123.333 92.7719 122.272 92.7719C121.212 92.7719 119.771 93.5605 117.949 95.1376C117.895 95.3552 117.446 97.0139 116.603 100.114C114.754 106.912 113.761 112.391 113.625 116.551C112.565 116.959 110.648 117.163 107.874 117.163H107.344C107.344 115.477 108.065 111.589 109.506 105.498C110.947 99.4068 111.668 95.8582 111.668 94.8521C111.668 93.4653 111.11 92.7719 109.995 92.7719C108.799 92.7719 107.235 93.6149 105.305 95.3008C105.305 100.848 104.326 106.042 102.368 110.882C101.443 113.166 100.233 115.029 98.7378 116.47C97.2694 117.884 95.7467 118.591 94.1695 118.591C92.6196 118.591 91.3959 118.115 90.4986 117.163C89.6285 116.239 89.1934 114.947 89.1934 113.288C89.1934 111.602 89.7916 109.631 90.9881 107.374C92.1845 105.09 93.4489 103.146 94.7813 101.541C96.1409 99.9098 97.5277 98.4415 98.9417 97.1363C98.9417 94.6346 98.6426 93.1254 98.0444 92.6088C97.7453 92.3641 97.3102 92.2417 96.7392 92.2417C96.1953 92.2417 95.3796 92.4864 94.2919 92.9759C93.2314 93.4653 92.2117 94.1315 91.2328 94.9745L90.2131 93.5469C91.1648 92.3777 92.5924 91.2492 94.4958 90.1615C96.3993 89.0738 98.0852 88.53 99.5535 88.53C101.049 88.53 102.218 88.9243 103.061 89.7128C103.931 90.4742 104.543 91.4531 104.897 92.6496C108.649 89.5769 111.613 88.0405 113.789 88.0405C114.876 88.0405 115.801 88.3804 116.562 89.0602C117.351 89.74 117.854 90.7597 118.071 92.1193C121.28 89.4001 123.958 88.0405 126.107 88.0405C127.303 88.0405 128.309 88.5164 129.125 89.4681C129.968 90.4198 130.389 91.7115 130.389 93.343C130.389 94.9473 129.723 98.1967 128.391 103.091C127.058 107.986 126.392 111.086 126.392 112.391C126.392 113.669 126.8 114.308 127.616 114.308C127.888 114.308 128.227 114.24 128.635 114.104L129.247 115.654ZM93.3946 114.716C94.4822 114.716 95.5563 113.37 96.6168 110.678C97.7045 107.959 98.4387 104.56 98.8194 100.481C97.0791 102.276 95.5155 104.41 94.1287 106.885C92.742 109.332 92.0486 111.249 92.0486 112.636C92.0486 114.022 92.4972 114.716 93.3946 114.716ZM141.265 101.46C141.265 102.602 140.898 104.573 140.164 107.374C139.43 110.148 139.062 111.969 139.062 112.84C139.062 113.683 139.185 114.104 139.43 114.104C139.593 114.104 140.218 113.846 141.306 113.329L141.795 113.084L142.489 114.512C142.244 114.729 141.918 115.001 141.51 115.328C141.102 115.654 140.34 116.103 139.226 116.674C138.111 117.218 137.077 117.489 136.126 117.489C135.174 117.489 134.426 117.204 133.882 116.633C133.339 116.035 133.067 115.246 133.067 114.267C133.067 113.261 133.407 111.494 134.086 108.965C134.766 106.409 135.106 104.75 135.106 103.989C135.106 102.847 134.753 101.772 134.046 100.766L133.678 100.277L133.719 99.7467C135.16 99.3388 137.499 99.1349 140.735 99.1349C141.088 99.5427 141.265 100.318 141.265 101.46ZM136.615 94.689C136.071 94.1451 135.799 93.4245 135.799 92.5272C135.799 91.6299 136.166 90.8413 136.901 90.1615C137.662 89.4817 138.532 89.1418 139.511 89.1418C140.49 89.1418 141.251 89.4137 141.795 89.9576C142.339 90.5014 142.611 91.222 142.611 92.1193C142.611 92.9895 142.217 93.7644 141.428 94.4442C140.667 95.124 139.81 95.4639 138.858 95.4639C137.907 95.4639 137.159 95.2056 136.615 94.689ZM156.538 111.657C156.538 113.37 155.777 114.77 154.254 115.858C152.759 116.946 151.046 117.489 149.115 117.489C147.184 117.489 145.648 117.082 144.506 116.266C143.391 115.45 142.834 114.729 142.834 114.104C142.834 113.723 143.31 113.112 144.261 112.269C145.213 111.398 146.015 110.868 146.668 110.678C148.027 111.684 149.142 113.275 150.012 115.45C151.019 115.368 151.522 114.893 151.522 114.022C151.522 112.772 150.42 111.004 148.218 108.72C146.015 106.409 144.914 104.573 144.914 103.214C144.914 101.854 145.526 100.807 146.749 100.073C147.973 99.3116 149.441 98.9309 151.154 98.9309C152.895 98.9309 154.2 99.2436 155.07 99.869C155.94 100.467 156.375 101.297 156.375 102.357C156.375 103.39 155.546 104.832 153.887 106.681C154.078 106.871 154.322 107.129 154.621 107.456C154.921 107.755 155.315 108.339 155.804 109.209C156.294 110.08 156.538 110.895 156.538 111.657ZM152.623 105.253C153.765 104.274 154.336 103.309 154.336 102.357C154.336 101.405 153.683 100.93 152.378 100.93C151.753 100.93 151.236 101.065 150.828 101.337C150.42 101.582 150.216 101.868 150.216 102.194C150.216 102.792 150.815 103.635 152.011 104.723L152.623 105.253Z" fill="#FEE0E2"/>
<g filter="url(#filter1_i_2114_32)">
<path d="M188.9 65.0401C190.76 65.0401 192.653 65.1415 194.58 65.3443V65.4458L194.681 65.3443V124.931C197.386 126.012 199.296 127.162 200.412 128.379L199.347 137H172.368L171.303 128.379C172.588 126.858 175.394 125.539 179.722 124.423V78.9351C175.834 78.5294 172.723 77.8025 170.391 76.7545V68.8942C176.172 66.3248 182.342 65.0401 188.9 65.0401ZM234.541 92.7794C241.37 92.7794 246.661 94.6388 250.414 98.3577C254.166 102.043 256.043 107.503 256.043 114.738C256.043 121.972 253.676 127.635 248.943 131.726C244.244 135.783 237.888 137.811 229.875 137.811C221.829 137.811 216.031 135.479 212.481 130.813C208.965 126.148 207.207 118.761 207.207 108.652C207.207 101.891 208.492 95.484 211.061 89.4324C213.631 83.3808 217.231 78.1237 221.863 73.6611C226.495 69.1984 231.921 66.0036 238.141 64.0766L242.503 72.6975C232.394 77.0588 226.072 84.6148 223.536 95.3657C226.782 93.6415 230.45 92.7794 234.541 92.7794ZM222.167 105.863V108.652C222.167 115.346 222.86 120.265 224.246 123.409C225.633 126.52 227.813 128.075 230.788 128.075C237.651 128.075 241.083 123.747 241.083 115.093C241.083 111.002 240.474 107.942 239.257 105.914C238.04 103.851 236.012 102.82 233.172 102.82C228.946 102.82 225.278 103.835 222.167 105.863Z" fill="#FEE0E2"/>
</g>
<path d="M272.987 118.958C271.355 118.958 269.996 118.414 268.908 117.326C267.847 116.266 267.317 115.029 267.317 113.615C267.317 112.173 267.657 110.841 268.337 109.617C269.017 108.367 269.982 107.211 271.233 106.15C272.511 105.09 274.17 104.22 276.209 103.54C278.248 102.833 280.505 102.439 282.98 102.357C284.421 98.795 285.699 94.8113 286.814 90.4062C286.841 90.2431 286.855 90.0391 286.855 89.7944C286.855 89.5225 286.719 89.2914 286.447 89.101V88.6931C288.785 88.2581 290.92 88.0405 292.85 88.0405L295.298 88.2037C296.005 89.4545 296.399 91.1948 296.481 93.4245C296.562 95.6271 296.617 99.4612 296.644 104.927C299.58 106.205 302.096 107.823 304.189 109.781C304.081 110.134 303.863 110.488 303.537 110.841C303.238 111.167 302.952 111.412 302.68 111.575L302.272 111.82C300.668 110.243 298.805 108.897 296.684 107.782C296.739 109.332 296.888 110.637 297.133 111.698C297.514 113.438 297.963 114.308 298.479 114.308C298.778 114.308 299.132 114.24 299.54 114.104L300.151 115.695C298.275 116.891 296.481 117.489 294.767 117.489C291.939 117.489 290.526 115.355 290.526 111.086V105.743C288.622 105.28 286.895 104.995 285.345 104.886C281.81 114.267 277.691 118.958 272.987 118.958ZM281.96 104.845C278.887 105.09 276.331 106.164 274.292 108.067C272.252 109.971 271.233 111.752 271.233 113.411C271.233 115.069 271.872 115.899 273.15 115.899C275.76 115.899 278.697 112.214 281.96 104.845ZM290.077 91.3036C290.022 91.2764 289.914 91.2628 289.751 91.2628C289.587 91.2628 289.479 91.2764 289.424 91.3036C289.18 93.3702 288.119 97.0819 286.243 102.439C287.575 102.52 289.003 102.711 290.526 103.01C290.526 96.3205 290.376 92.4184 290.077 91.3036ZM302.013 117.122H301.238C301.238 115.844 301.619 113.397 302.38 109.781C303.169 106.164 303.563 104.111 303.563 103.622C303.563 102.724 303.183 101.772 302.421 100.766L302.054 100.277L302.095 99.7467C303.563 99.3388 305.915 99.1349 309.151 99.1349C309.505 99.5971 309.695 100.44 309.722 101.664C312.088 99.8419 314.087 98.9309 315.718 98.9309C316.697 98.9309 317.472 99.2708 318.043 99.9506C318.641 100.63 318.94 101.487 318.94 102.52C318.94 103.526 318.628 105.28 318.002 107.782C317.377 110.284 317.064 111.969 317.064 112.84C317.064 113.683 317.173 114.104 317.39 114.104C317.554 114.104 318.125 113.846 319.104 113.329L319.593 113.084L320.327 114.512C320.082 114.729 319.756 115.001 319.348 115.328C318.94 115.654 318.179 116.103 317.064 116.674C315.976 117.218 314.998 117.489 314.127 117.489C312.142 117.489 311.15 116.361 311.15 114.104C311.15 113.152 311.449 111.398 312.047 108.842C312.673 106.286 312.985 104.641 312.985 103.907C312.985 103.173 312.754 102.806 312.292 102.806C311.503 102.806 310.538 103.146 309.396 103.825C309.314 104.288 309.043 105.511 308.58 107.496C307.629 111.766 307.153 114.784 307.153 116.551C306.201 116.932 304.488 117.122 302.013 117.122ZM305.032 95.5863C305.412 91.725 306.786 89.7944 309.151 89.7944C310.076 89.7944 311.422 90.0391 313.189 90.5286C314.984 90.9909 316.248 91.222 316.983 91.222C317.717 91.222 318.233 91.1404 318.533 90.9773C318.832 90.8141 319.172 90.4062 319.552 89.7536L320.817 89.9984C320.708 91.2492 320.49 92.2961 320.164 93.139C319.539 94.7434 318.369 95.5455 316.656 95.5455C316.031 95.5455 314.862 95.3144 313.148 94.8521C311.463 94.3627 310.198 94.1179 309.355 94.1179C308.539 94.1179 307.928 94.2403 307.52 94.485C307.139 94.7026 306.745 95.1648 306.337 95.8718L305.032 95.5863ZM327.335 117.489C325.459 117.489 323.99 116.837 322.93 115.532C321.869 114.199 321.339 112.35 321.339 109.984C321.339 106.966 322.141 104.369 323.746 102.194C325.377 100.019 327.621 98.9309 330.476 98.9309L331.944 99.0125C332.406 98.7678 332.923 98.6454 333.494 98.6454C335.642 98.6454 336.716 100.671 336.716 104.723C337.831 104.668 338.96 104.519 340.102 104.274L340.754 104.111L340.999 105.702C340.102 106.082 338.892 106.422 337.369 106.721L336.553 106.885C336.037 109.74 334.99 112.228 333.412 114.349C331.835 116.443 329.81 117.489 327.335 117.489ZM329.538 113.982C330.68 113.982 331.699 113.248 332.597 111.779C333.521 110.311 334.16 108.761 334.514 107.129C331.604 107.129 330.149 106.042 330.149 103.866C330.149 102.996 330.326 102.18 330.68 101.419L330.884 101.011C330.775 100.957 330.639 100.93 330.476 100.93C330.313 100.93 330.19 100.957 330.109 101.011C329.429 101.446 328.79 102.466 328.192 104.07C327.593 105.675 327.294 107.51 327.294 109.577C327.294 112.513 328.042 113.982 329.538 113.982ZM350.719 111.657C350.719 113.37 349.957 114.77 348.435 115.858C346.939 116.946 345.226 117.489 343.295 117.489C341.365 117.489 339.828 117.082 338.686 116.266C337.571 115.45 337.014 114.729 337.014 114.104C337.014 113.723 337.49 113.112 338.442 112.269C339.393 111.398 340.195 110.868 340.848 110.678C342.208 111.684 343.322 113.275 344.193 115.45C345.199 115.368 345.702 114.893 345.702 114.022C345.702 112.772 344.6 111.004 342.398 108.72C340.195 106.409 339.094 104.573 339.094 103.214C339.094 101.854 339.706 100.807 340.93 100.073C342.153 99.3116 343.622 98.9309 345.335 98.9309C347.075 98.9309 348.38 99.2436 349.25 99.869C350.12 100.467 350.556 101.297 350.556 102.357C350.556 103.39 349.726 104.832 348.067 106.681C348.258 106.871 348.503 107.129 348.802 107.456C349.101 107.755 349.495 108.339 349.985 109.209C350.474 110.08 350.719 110.895 350.719 111.657ZM346.803 105.253C347.945 104.274 348.516 103.309 348.516 102.357C348.516 101.405 347.864 100.93 346.558 100.93C345.933 100.93 345.416 101.065 345.008 101.337C344.6 101.582 344.397 101.868 344.397 102.194C344.397 102.792 344.995 103.635 346.191 104.723L346.803 105.253Z" fill="#FEE0E2"/>
<g filter="url(#filter2_f_2114_32)">
<path d="M291.332 65.2164C291.417 66.0596 291.492 66.9827 291.499 67.2679C291.514 67.826 291.537 67.6442 291.793 64.9963C291.927 63.5999 292.227 62.0478 292.505 61.3035C292.989 60.0101 293.934 59.1414 295.389 58.6531C296.285 58.3524 298.242 58.0416 299.9 57.9367C300.52 57.8974 301.015 57.8534 301 57.8388C300.984 57.8242 300.356 57.7596 299.602 57.6951C296.17 57.4014 294.674 56.9849 293.643 56.0357C293.06 55.4989 292.795 55.0796 292.467 54.1691C292.11 53.1787 291.923 52.1099 291.7 49.7781C291.596 48.69 291.505 48.0559 291.498 48.3689C291.477 49.3747 291.179 52.0329 290.983 52.9739C290.265 56.4187 288.823 57.2732 282.913 57.7563L282 57.831L283.522 57.9607C286.945 58.2525 288.481 58.6835 289.525 59.6459C290.573 60.6123 291.004 61.9385 291.332 65.2164Z" fill="#696969"/>
</g>
<g filter="url(#filter3_f_2114_32)">
<path d="M88.3322 36.1894C88.4168 37.0326 88.492 37.9557 88.4993 38.2409C88.5135 38.7991 88.537 38.6172 88.7925 35.9693C88.9273 34.573 89.2269 33.0208 89.5054 32.2766C89.9893 30.9831 90.9344 30.1145 92.3891 29.6262C93.285 29.3254 95.2417 29.0146 96.8996 28.9097C97.5199 28.8704 98.0149 28.8264 97.9997 28.8118C97.9844 28.7972 97.3556 28.7326 96.6023 28.6681C93.1699 28.3744 91.6744 27.958 90.6429 27.0087C90.0596 26.4719 89.7954 26.0526 89.467 25.1421C89.1097 24.1517 88.9229 23.0829 88.6997 20.7511C88.5955 19.663 88.5049 19.0289 88.4982 19.3419C88.4766 20.3478 88.1795 23.0059 87.9833 23.947C87.2653 27.3917 85.8233 28.2462 79.9131 28.7293L79 28.804L80.5218 28.9337C83.9455 29.2255 85.4808 29.6565 86.5249 30.619C87.5732 31.5853 88.0035 32.9116 88.3322 36.1894Z" fill="#696969"/>
</g>
<g filter="url(#filter4_f_2114_32)">
<path d="M360.091 43.0769C360.255 44.7114 360.401 46.501 360.415 47.0538C360.443 48.1359 360.488 47.7833 360.983 42.6502C361.245 39.9433 361.826 36.9343 362.365 35.4916C363.303 32.9842 365.136 31.3002 367.956 30.3536C369.692 29.7706 373.486 29.168 376.7 28.9647C377.902 28.8886 378.862 28.8032 378.832 28.775C378.802 28.7467 377.584 28.6213 376.123 28.4964C369.469 27.927 366.57 27.1197 364.571 25.2796C363.44 24.2389 362.928 23.426 362.291 21.661C361.598 19.7411 361.236 17.6691 360.804 13.1488C360.602 11.0395 360.426 9.81016 360.413 10.417C360.371 12.3668 359.795 17.5199 359.415 19.3441C358.023 26.0219 355.227 27.6785 343.77 28.6151L342 28.7598L344.95 29.0112C351.587 29.5769 354.563 30.4125 356.587 32.2782C358.62 34.1515 359.454 36.7225 360.091 43.0769Z" fill="#696969"/>
</g>
<g filter="url(#filter5_f_2114_32)">
<path d="M134.841 157.832C134.921 158.631 134.992 159.505 134.999 159.775C135.013 160.304 135.035 160.132 135.277 157.623C135.405 156.3 135.689 154.83 135.952 154.125C136.411 152.899 137.306 152.076 138.684 151.614C139.533 151.329 141.387 151.034 142.958 150.935C143.545 150.898 144.014 150.856 144 150.842C143.985 150.829 143.39 150.767 142.676 150.706C139.424 150.428 138.007 150.033 137.03 149.134C136.477 148.626 136.227 148.228 135.916 147.366C135.578 146.428 135.401 145.415 135.189 143.206C135.091 142.175 135.005 141.574 134.998 141.871C134.978 142.824 134.696 145.342 134.511 146.234C133.83 149.497 132.464 150.307 126.865 150.764L126 150.835L127.442 150.958C130.685 151.234 132.14 151.643 133.129 152.554C134.122 153.47 134.53 154.726 134.841 157.832Z" fill="#696969"/>
</g>
<g filter="url(#filter6_f_2114_32)">
<path d="M356.091 183.077C356.255 184.711 356.401 186.501 356.415 187.054C356.443 188.136 356.488 187.783 356.983 182.65C357.245 179.943 357.826 176.934 358.365 175.492C359.303 172.984 361.136 171.3 363.956 170.354C365.692 169.771 369.486 169.168 372.7 168.965C373.902 168.889 374.862 168.803 374.832 168.775C374.802 168.747 373.584 168.621 372.123 168.496C365.469 167.927 362.57 167.12 360.571 165.28C359.44 164.239 358.928 163.426 358.291 161.661C357.598 159.741 357.236 157.669 356.804 153.149C356.602 151.039 356.426 149.81 356.413 150.417C356.371 152.367 355.795 157.52 355.415 159.344C354.023 166.022 351.227 167.678 339.77 168.615L338 168.76L340.95 169.011C347.587 169.577 350.563 170.412 352.587 172.278C354.62 174.151 355.454 176.723 356.091 183.077Z" fill="#696969"/>
</g>
<g filter="url(#filter7_f_2114_32)">
<path d="M249.091 159.077C249.255 160.711 249.401 162.501 249.415 163.054C249.443 164.136 249.488 163.783 249.983 158.65C250.245 155.943 250.826 152.934 251.365 151.492C252.303 148.984 254.136 147.3 256.956 146.354C258.692 145.771 262.486 145.168 265.7 144.965C266.902 144.889 267.862 144.803 267.832 144.775C267.802 144.747 266.584 144.621 265.123 144.496C258.469 143.927 255.57 143.12 253.571 141.28C252.44 140.239 251.928 139.426 251.291 137.661C250.598 135.741 250.236 133.669 249.804 129.149C249.602 127.039 249.426 125.81 249.413 126.417C249.371 128.367 248.795 133.52 248.415 135.344C247.023 142.022 244.227 143.678 232.77 144.615L231 144.76L233.95 145.011C240.587 145.577 243.563 146.412 245.587 148.278C247.62 150.151 248.454 152.723 249.091 159.077Z" fill="#696969"/>
</g>
<g filter="url(#filter8_f_2114_32)">
<path d="M37.0911 95.0769C37.2551 96.7114 37.4007 98.501 37.4149 99.0538C37.4426 100.136 37.4881 99.7833 37.9835 94.6502C38.2447 91.9433 38.8255 88.9343 39.3653 87.4916C40.3035 84.9842 42.1356 83.3002 44.9555 82.3536C46.6923 81.7706 50.4856 81.168 53.6996 80.9647C54.9019 80.8886 55.8615 80.8032 55.832 80.775C55.8025 80.7467 54.5835 80.6213 53.1232 80.4964C46.4693 79.927 43.5701 79.1197 41.5705 77.2796C40.4396 76.2389 39.9275 75.426 39.2909 73.661C38.5983 71.7411 38.2363 69.6691 37.8035 65.1488C37.6016 63.0395 37.4257 61.8102 37.4128 62.417C37.3711 64.3668 36.795 69.5199 36.4147 71.3441C35.0228 78.0219 32.2274 79.6785 20.7701 80.6151L19 80.7598L21.9501 81.0112C28.5871 81.5769 31.5634 82.4125 33.5874 84.2782C35.6197 86.1515 36.4539 88.7225 37.0911 95.0769Z" fill="#696969"/>
</g>
<g filter="url(#filter9_f_2114_32)">
<path d="M201.997 55.0444C202.25 57.5739 202.476 60.3433 202.498 61.1987C202.541 62.8733 202.611 62.3277 203.378 54.384C203.782 50.195 204.681 45.5385 205.516 43.3058C206.968 39.4254 209.803 36.8195 214.167 35.3546C216.855 34.4523 222.725 33.5198 227.699 33.2051C229.56 33.0874 231.045 32.9553 230.999 32.9115C230.953 32.8678 229.067 32.6738 226.807 32.4804C216.51 31.5992 212.023 30.3499 208.929 27.5023C207.179 25.8918 206.386 24.6338 205.401 21.9025C204.329 18.9313 203.769 15.7248 203.099 8.72952C202.787 5.46522 202.515 3.56279 202.494 4.50188C202.43 7.51934 201.538 15.4938 200.95 18.317C198.796 28.6511 194.47 31.2147 176.739 32.6641L174 32.888L178.565 33.2772C188.836 34.1526 193.442 35.4456 196.575 38.3329C199.72 41.2319 201.011 45.2107 201.997 55.0444Z" fill="#696969"/>
</g>
</g>
<defs>
<filter id="filter0_f_2114_32" x="92.2397" y="-30.0143" width="256.521" height="258.793" filterUnits="userSpaceOnUse" color-interpolation-filters="sRGB">
<feFlood flood-opacity="0" result="BackgroundImageFix"/>
<feBlend mode="normal" in="SourceGraphic" in2="BackgroundImageFix" result="shape"/>
<feGaussianBlur stdDeviation="18.3802" result="effect1_foregroundBlur_2114_32"/>
</filter>
<filter id="filter1_i_2114_32" x="170.391" y="64.0765" width="86.252" height="73.7349" filterUnits="userSpaceOnUse" color-interpolation-filters="sRGB">
<feFlood flood-opacity="0" result="BackgroundImageFix"/>
<feBlend mode="normal" in="SourceGraphic" in2="BackgroundImageFix" result="shape"/>
<feColorMatrix in="SourceAlpha" type="matrix" values="0 0 0 0 0 0 0 0 0 0 0 0 0 0 0 0 0 0 127 0" result="hardAlpha"/>
<feOffset dx="6"/>
<feGaussianBlur stdDeviation="0.3"/>
<feComposite in2="hardAlpha" operator="arithmetic" k2="-1" k3="1"/>
<feColorMatrix type="matrix" values="0 0 0 0 1 0 0 0 0 0.711538 0 0 0 0 0.725962 0 0 0 1 0"/>
<feBlend mode="normal" in2="shape" result="effect1_innerShadow_2114_32"/>
</filter>
<filter id="filter2_f_2114_32" x="278.183" y="44.4723" width="26.6333" height="26.8691" filterUnits="userSpaceOnUse" color-interpolation-filters="sRGB">
<feFlood flood-opacity="0" result="BackgroundImageFix"/>
<feBlend mode="normal" in="SourceGraphic" in2="BackgroundImageFix" result="shape"/>
<feGaussianBlur stdDeviation="1.90832" result="effect1_foregroundBlur_2114_32"/>
</filter>
<filter id="filter3_f_2114_32" x="75.1834" y="15.4453" width="26.6333" height="26.8691" filterUnits="userSpaceOnUse" color-interpolation-filters="sRGB">
<feFlood flood-opacity="0" result="BackgroundImageFix"/>
<feBlend mode="normal" in="SourceGraphic" in2="BackgroundImageFix" result="shape"/>
<feGaussianBlur stdDeviation="1.90832" result="effect1_foregroundBlur_2114_32"/>
</filter>
<filter id="filter4_f_2114_32" x="334.601" y="2.86315" width="51.6303" height="52.0875" filterUnits="userSpaceOnUse" color-interpolation-filters="sRGB">
<feFlood flood-opacity="0" result="BackgroundImageFix"/>
<feBlend mode="normal" in="SourceGraphic" in2="BackgroundImageFix" result="shape"/>
<feGaussianBlur stdDeviation="3.6994" result="effect1_foregroundBlur_2114_32"/>
</filter>
<filter id="filter5_f_2114_32" x="122.384" y="138.179" width="25.2315" height="25.4551" filterUnits="userSpaceOnUse" color-interpolation-filters="sRGB">
<feFlood flood-opacity="0" result="BackgroundImageFix"/>
<feBlend mode="normal" in="SourceGraphic" in2="BackgroundImageFix" result="shape"/>
<feGaussianBlur stdDeviation="1.80789" result="effect1_foregroundBlur_2114_32"/>
</filter>
<filter id="filter6_f_2114_32" x="330.601" y="142.863" width="51.6303" height="52.0875" filterUnits="userSpaceOnUse" color-interpolation-filters="sRGB">
<feFlood flood-opacity="0" result="BackgroundImageFix"/>
<feBlend mode="normal" in="SourceGraphic" in2="BackgroundImageFix" result="shape"/>
<feGaussianBlur stdDeviation="3.6994" result="effect1_foregroundBlur_2114_32"/>
</filter>
<filter id="filter7_f_2114_32" x="223.601" y="118.863" width="51.6303" height="52.0875" filterUnits="userSpaceOnUse" color-interpolation-filters="sRGB">
<feFlood flood-opacity="0" result="BackgroundImageFix"/>
<feBlend mode="normal" in="SourceGraphic" in2="BackgroundImageFix" result="shape"/>
<feGaussianBlur stdDeviation="3.6994" result="effect1_foregroundBlur_2114_32"/>
</filter>
<filter id="filter8_f_2114_32" x="11.6012" y="54.8632" width="51.6303" height="52.0875" filterUnits="userSpaceOnUse" color-interpolation-filters="sRGB">
<feFlood flood-opacity="0" result="BackgroundImageFix"/>
<feBlend mode="normal" in="SourceGraphic" in2="BackgroundImageFix" result="shape"/>
<feGaussianBlur stdDeviation="3.6994" result="effect1_foregroundBlur_2114_32"/>
</filter>
<filter id="filter9_f_2114_32" x="159.6" y="-10.138" width="85.8" height="86.5076" filterUnits="userSpaceOnUse" color-interpolation-filters="sRGB">
<feFlood flood-opacity="0" result="BackgroundImageFix"/>
<feBlend mode="normal" in="SourceGraphic" in2="BackgroundImageFix" result="shape"/>
<feGaussianBlur stdDeviation="7.2" result="effect1_foregroundBlur_2114_32"/>
</filter>
<clipPath id="clip0_2114_32">
<rect width="440" height="208" fill="white"/>
</clipPath>
</defs>
</svg>
